<svg id="Layer_1" data-name="Layer 1" xmlns="http://www.w3.org/2000/svg" xmlns:xlink="http://www.w3.org/1999/xlink" viewBox="0 0 136.38 48.63">
  <defs>
    <style>
      .cls-1 {
        fill: #212433;
      }

      .cls-2 {
        fill: #5168f4;
      }

      .cls-3 {
        fill: #fff;
      }
    </style>
  </defs>
  <image width="500" height="500" transform="translate(87.75) scale(0.1)" xlink:href="../../../../../Users/darkv/Downloads/kisspng-nagios-company-computer-icons-business-beacon-reti-nagios-enterprises-launches-live-nagios-training-5bad622b765867.5751083515380895154848.png"/>
  <rect class="cls-1" y="1.7" width="45.22" height="45.22" rx="8.76"/>
  <path class="cls-2" d="M26.71,26H24.5a.48.48,0,0,1-.48-.48.5.5,0,0,1,.06-.24l1.11-1.91a.51.51,0,0,0,0-.48L23,19.18a.48.48,0,0,0-.65-.17.46.46,0,0,0-.17.17L12.91,35.26a.46.46,0,0,1-.41.24H8.14A.47.47,0,0,1,7.67,35a.48.48,0,0,1,.06-.24L22.2,9.73a.48.48,0,0,1,.65-.18.49.49,0,0,1,.17.18L37.49,34.79a.46.46,0,0,1-.17.65.5.5,0,0,1-.24.06h-18a.48.48,0,0,1-.48-.48.44.44,0,0,1,.07-.24L20.82,31a.49.49,0,0,1,.42-.24h7.65a.46.46,0,0,0,.41-.71l-2.18-3.78A.47.47,0,0,0,26.71,26Z"/>
  <path class="cls-3" d="M63,23.91l-4.24-5.36a.54.54,0,0,1,.43-.87h5a.52.52,0,0,1,.42.2L66,19.59a.55.55,0,0,0,.85,0l1.29-1.69a.54.54,0,0,1,.42-.21h5a.54.54,0,0,1,.43.86l-4.1,5.33a.54.54,0,0,0,0,.66l4.39,5.55a.54.54,0,0,1-.42.87h-5a.53.53,0,0,1-.42-.21l-1.52-1.89a.53.53,0,0,0-.84,0l-1.45,1.88a.55.55,0,0,1-.43.21h-5a.54.54,0,0,1-.43-.87L63,24.57A.54.54,0,0,0,63,23.91Z"/>
</svg>
