<svg id="Layer_1" data-name="Layer 1" xmlns="http://www.w3.org/2000/svg" viewBox="0 0 1090.99 1090.99">
  <defs>
    <style>
      .cls-1 {
        fill: #212433;
      }

      .cls-2 {
        fill: #5168f4;
      }
    </style>
  </defs>
  <rect class="cls-1" width="1090.99" height="1090.99" rx="182.73"/>
  <path class="cls-2" d="M649.91,635.8H593.58a12.17,12.17,0,0,1-10.53-18.25l28.16-48.77a12.17,12.17,0,0,0,0-12.16L556,461A12.17,12.17,0,0,0,535,461L298.16,871.19a12.18,12.18,0,0,1-10.54,6.08H176.44A12.17,12.17,0,0,1,165.91,859L535,219.8a12.17,12.17,0,0,1,21.07,0L925.08,859a12.16,12.16,0,0,1-10.53,18.25H796.34l-341.47-.1a12.16,12.16,0,0,1-10.53-18.24l55.54-96.28a12.17,12.17,0,0,1,10.53-6.08l195.19.06a12.17,12.17,0,0,0,10.53-18.25l-55.68-96.5A12.18,12.18,0,0,0,649.91,635.8Z" transform="translate(0 0)"/>
</svg>
